<?xml version="1.0" encoding="utf-8"?><svg version="1.2" baseProfile="tiny" id="Layer_1" xmlns="http://www.w3.org/2000/svg" xmlns:xlink="http://www.w3.org/1999/xlink" x="0px" y="0px"  viewBox="0 0 60 9.947" xml:space="preserve"><g>	<path d="M12.878,1.029c0,0,4.345,1.836,8.651,3.753c1.082,0.468,2.17,0.923,3.173,1.385c0.991,0.487,1.905,0.964,2.671,1.412		c0.762,0.454,1.399,0.829,1.829,1.124c0.435,0.284,0.676,0.463,0.676,0.463l-0.043,0.09c0,0-0.291-0.075-0.785-0.236		c-0.5-0.15-1.191-0.411-2.023-0.72c-0.829-0.315-1.774-0.728-2.775-1.195c-0.989-0.492-2.026-1.054-3.069-1.603		C16.99,3.353,12.835,1.12,12.835,1.12L12.878,1.029z"/><path d="M47.165,1.12c0,0-4.228,2.234-8.495,4.386c-1.061,0.549-2.117,1.112-3.122,1.603c-1.018,0.466-1.978,0.879-2.82,1.194		c-0.845,0.309-1.547,0.57-2.054,0.719c-0.502,0.161-0.796,0.236-0.796,0.236l-0.043-0.09c0,0,0.246-0.179,0.689-0.464		c0.438-0.296,1.087-0.67,1.863-1.125c0.779-0.448,1.709-0.925,2.717-1.413c1.02-0.462,2.126-0.917,3.225-1.385		c4.377-1.917,8.793-3.752,8.793-3.752L47.165,1.12z"/></g></svg>